<svg version="1.2" xmlns="http://www.w3.org/2000/svg" viewBox="0 0 1285 643" width="1285" height="643">
	<title>Ci-STemlogo_withbg</title>
	<style>
		.s0 { fill: #ffffff } 
		.s1 { fill: #ee9411 } 
		.s2 { fill: #3c6997 } 
		.s3 { fill: #3b6b94 } 
		.s4 { fill: #f9f9f9 } 
	</style>
	<g id="layer1">
		<path id="rect56" fill-rule="evenodd" class="s0" d="m1285-1.3v644.6h-1285.2v-644.6z"/>
		<path id="path56" fill-rule="evenodd" class="s1" d="m301.8 198.5q-8.6 0-17.1 1.2-8.6 1.3-16.8 3.7-8.3 2.4-16.2 6-7.8 3.6-15.1 8.3-7.2 4.7-13.7 10.4-6.6 5.7-12.2 12.2-5.7 6.6-10.3 13.9-4.7 7.2-8.3 15.1-3.6 7.9-6 16.2-2.4 8.3-3.6 16.9-1.3 8.6-1.3 17.3 0 8.6 1.3 17.2 1.2 8.6 3.6 16.9 2.4 8.3 6 16.2 3.6 7.9 8.3 15.2 4.6 7.3 10.3 13.8 5.6 6.6 12.2 12.2 6.5 5.7 13.7 10.4 7.3 4.7 15.1 8.3 7.9 3.6 16.2 6 8.2 2.5 16.8 3.7 8.5 1.2 17.1 1.2 8.7 0 17.2-1.2 8.5-1.2 16.8-3.7 8.3-2.4 16.2-6 7.8-3.6 15.1-8.3 5.2-3.5 10.1-7.6 0.1-0.1 0.3-0.2v-162.8c0-10.6 0-21.2 0-31.9l-20.8 0.1v14.9l1.3 170.3c-1.3 0.8-6.3 4-8.9 5.4q-7.1 3.6-14.8 6.1-7.6 2.4-15.6 3.7-7.9 1.2-16 1.2-8 0-15.9-1.2-8-1.3-15.6-3.7-7.7-2.5-14.8-6.1-7.2-3.6-13.7-8.3-6.5-4.7-12.2-10.3-5.7-5.6-10.4-12-4.7-6.5-8.4-13.6-3.6-7-6.1-14.6-2.5-7.6-3.8-15.4-1.2-7.9-1.2-15.8 0-8 1.2-15.8 1.3-7.9 3.8-15.4 2.5-7.6 6.1-14.7 3.7-7 8.4-13.5 4.7-6.4 10.4-12 5.7-5.6 12.2-10.3 6.5-4.7 13.7-8.3 7.1-3.6 14.8-6.1 7.6-2.4 15.6-3.7 7.9-1.2 15.9-1.2 2.8 0 5.6 0.1 2.7 0.2 5.5 0.5 2.7 0.3 5.5 0.7 2.7 0.5 5.4 1.1 1.3 0.2 2.5 0.6l-8.6-22.1q-2.5-0.4-4.9-0.6-3-0.3-5.9-0.5-3-0.1-6-0.1z"/>
		<path id="path55" fill-rule="evenodd" class="s1" d="m302.2 159.7q-11.4 0-22.7 1.7-11.3 1.6-22.2 4.8-11 3.2-21.4 7.9-10.4 4.8-20 10.9-9.6 6.2-18.2 13.7-8.6 7.4-16.1 16.1-7.5 8.6-13.7 18.2-6.1 9.5-10.9 19.9-4.7 10.4-7.9 21.3-3.3 11-4.9 22.3-1.6 11.2-1.6 22.6 0 11.4 1.6 22.7 1.6 11.3 4.9 22.3 3.2 10.9 7.9 21.3 4.8 10.3 10.9 19.9 6.2 9.6 13.7 18.2 7.5 8.6 16.1 16.1 8.6 7.5 18.2 13.6 9.6 6.2 20 10.9 10.4 4.8 21.4 8 10.9 3.2 22.2 4.8 11.3 1.6 22.7 1.6 11.5 0 22.8-1.6 11.3-1.6 22.2-4.8 11-3.2 21.4-8 10.4-4.7 20-10.9 9.6-6.1 18.2-13.6 4.1-3.8 7.9-7.8 0.4-0.4 0.7-0.8v-29.6-162.7-19h-16.8-4l0.8 203.3c-3.3 3-7.5 6.6-11 9.3-5.9 4.3-12.2 8.1-18.7 11.4q-9.8 4.9-20.3 8.3c-6.9 2.2-14.1 3.9-21.3 5.1-7.2 1.1-14.5 1.7-21.9 1.7-7.3 0-14.6-0.6-21.8-1.7-7.2-1.2-14.4-2.9-21.3-5.1-7-2.3-13.8-5-20.3-8.3-6.5-3.3-12.8-7.1-18.7-11.4-5.9-4.3-11.5-9-16.7-14.1-5.1-5.2-9.9-10.7-14.2-16.6-4.3-5.9-8.1-12.1-11.5-18.6-3.3-6.4-6.1-13.1-8.4-20.1-2.2-6.9-3.9-13.9-5.1-21.1-1.1-7.2-1.7-14.5-1.7-21.7 0-7.3 0.6-14.5 1.7-21.7 1.2-7.2 2.9-14.3 5.1-21.2 2.3-6.9 5.1-13.6 8.4-20.1 3.4-6.5 7.2-12.7 11.5-18.6 4.3-5.8 9.1-11.4 14.2-16.5 5.2-5.1 10.8-9.9 16.7-14.1 5.9-4.3 12.2-8.1 18.7-11.4 6.5-3.3 13.3-6.1 20.3-8.3 6.9-2.3 14.1-4 21.3-5.1 7.2-1.2 14.5-1.7 21.8-1.7q3.7 0 7.4 0.2 1 0 2.1 0.1l-7.7-21.9q-0.9-0.1-1.8-0.1z"/>
		<path id="path54" fill-rule="evenodd" class="s1" d="m288.2 121.1q-7.2 0.2-14.3 1c-9.4 1.4-18.6 3.4-27.7 6.1-9.1 2.7-18 6-26.6 9.9-8.6 4-16.9 8.6-24.8 13.7-8 5.2-15.6 10.9-22.7 17.1-7.2 6.2-13.9 13-20.1 20.2-6.2 7.2-11.8 14.8-17 22.8-5.1 8-9.6 16.4-13.5 25.1-4 8.6-7.3 17.6-10 26.7-2.6 9.1-4.6 18.4-6 27.9-1.3 9.4-2 18.9-2 28.4 0 9.5 0.7 19.1 2 28.5 1.4 9.4 3.4 18.7 6 27.9 2.7 9.1 6 18 10 26.7 3.9 8.6 8.4 17 13.5 25 5.2 8 10.8 15.7 17 22.9 6.2 7.2 12.9 13.9 20.1 20.1 7.1 6.3 14.7 12 22.7 17.1 7.9 5.2 16.2 9.7 24.8 13.7 8.6 4 17.5 7.3 26.6 10 9.1 2.7 18.3 4.7 27.7 6 9.3 1.4 18.8 2.1 28.3 2.1 9.4 0 18.9-0.7 28.2-2.1 9.4-1.3 18.6-3.3 27.7-6 9.1-2.7 18-6 26.6-10 8.6-4 16.9-8.5 24.9-13.7 7.9-5.1 15.5-10.8 22.6-17.1 7.2-6.2 13.8-13.3 20-20.5l1.2-1.7 0.1-34.5v-189.6-6h-3.9-16.1v222.3q-2.5 3-5.2 6c-6.6 6.7-13.8 12.8-21.4 18.3-7.6 5.5-15.6 10.5-23.9 14.7-8.4 4.3-17.1 7.9-26 10.8-9 2.9-18.1 5.1-27.4 6.6-9.3 1.5-18.6 2.2-28 2.2-9.4 0-18.8-0.7-28.1-2.2-9.2-1.5-18.4-3.7-27.3-6.6-8.9-2.9-17.6-6.5-26-10.8-8.4-4.2-16.4-9.2-24-14.7-7.6-5.5-14.7-11.6-21.4-18.3-6.6-6.7-12.7-13.8-18.2-21.4-5.6-7.7-10.5-15.7-14.7-24.1-4.3-8.4-7.9-17.1-10.8-26-2.9-9-5.1-18.2-6.6-27.5-1.4-9.3-2.2-18.6-2.2-28.1 0-9.4 0.8-18.8 2.2-28.1 1.5-9.3 3.7-18.4 6.6-27.4 2.9-8.9 6.5-17.7 10.8-26 4.2-8.4 9.1-16.5 14.7-24.1 5.5-7.6 11.6-14.8 18.2-21.4 6.7-6.7 13.8-12.8 21.4-18.3 7.6-5.6 15.6-10.5 24-14.8 8.4-4.2 17.1-7.8 26-10.7 8.9-3 18.1-5.2 27.3-6.6q10.9-1.6 21.9-1.8z"/>
		<path id="path53" fill-rule="evenodd" class="s1" d="m275 85.2q-3.1 0.2-6.2 0.4c-11.1 1.7-22.2 4.1-33 7.2-10.9 3.2-21.5 7.2-31.7 11.8-10.3 4.7-20.2 10.1-29.7 16.2-9.5 6.1-18.6 12.9-27.1 20.3-8.6 7.4-16.6 15.4-23.9 23.9-7.4 8.5-14.2 17.6-20.3 27.1-6.1 9.4-11.6 19.4-16.2 29.6-4.7 10.3-8.7 20.9-11.9 31.7-3.2 10.8-5.6 21.8-7.2 33-1.6 11.2-2.4 22.4-2.4 33.7 0 11.3 0.8 22.6 2.4 33.7 1.6 11.2 4 22.2 7.2 33.1 3.2 10.8 7.2 21.4 11.9 31.6 4.6 10.3 10.1 20.2 16.2 29.7 6.1 9.5 12.9 18.5 20.3 27 7.3 8.6 15.3 16.6 23.9 23.9 8.5 7.4 17.6 14.2 27.1 20.3 9.5 6.1 19.4 11.5 29.7 16.2 10.2 4.7 20.8 8.6 31.7 11.8 10.8 3.2 21.9 5.6 33 7.2 11.2 1.6 22.5 2.4 33.8 2.4 11.3 0 22.6-0.8 33.7-2.4 11.2-1.6 22.3-4 33.1-7.2 10.8-3.2 21.4-7.1 31.7-11.8 10.3-4.7 20.2-10.1 29.7-16.2 9.5-6.1 18.6-12.9 27.1-20.3 8.5-7.3 16.5-15.3 23.9-23.9 2.8-3.2 5.6-7.1 8-10.5l-0.1-36.9q-1.4 2.6-2.8 5.1-1.5 2.5-3 5 1.5-2.5 3-5 1.4-2.5 2.8-5.1v-209.5h-21.2l0.8 239.6c-4.1 5.2-9.2 10.8-13.7 15.7-8.1 8-16.7 15.5-25.9 22.2-9.1 6.6-18.8 12.6-28.9 17.8-10.1 5.2-20.6 9.5-31.4 13-10.7 3.6-21.8 6.2-33 8-11.2 1.8-22.5 2.7-33.8 2.7-11.3 0-22.7-0.9-33.8-2.7-11.2-1.8-22.3-4.4-33.1-8-10.7-3.5-21.2-7.8-31.3-13-10.1-5.2-19.8-11.2-29-17.8-9.1-6.7-17.8-14.2-25.8-22.2-8-8.1-15.4-16.7-22-26-6.7-9.2-12.6-18.9-17.8-29.1-5.1-10.1-9.4-20.6-12.9-31.5-3.6-10.8-6.2-21.9-8-33.2-1.7-11.2-2.6-22.6-2.6-34 0-11.4 0.9-22.7 2.6-34 1.8-11.2 4.4-22.3 8-33.2 3.5-10.8 7.8-21.4 12.9-31.5 5.2-10.2 11.1-19.9 17.8-29.1 6.6-9.2 14-17.9 22-25.9 8-8.1 16.7-15.5 25.8-22.2 9.2-6.7 18.9-12.7 29-17.8 10.1-5.2 20.6-9.6 31.3-13.1 10.8-3.5 21.9-6.2 33.1-8q6.4-0.7 12.8-1z"/>
		<path id="path52" fill-rule="evenodd" class="s1" d="m425.4 85.1q0.7 0 1.3 0.1 1 0 1.9 0.1 1.5 0.2 3.1 0.4 1.5 0.2 3.1 0.5 1.5 0.3 3.1 0.7 1.5 0.4 3 0.9 1.5 0.4 3 1 1.5 0.5 3 1.1 1.4 0.6 2.9 1.3 1.4 0.7 2.8 1.4 1.4 0.7 2.7 1.6 1.4 0.8 2.7 1.6 1.3 0.9 2.6 1.9 1.2 0.9 2.5 1.9 1.2 1 2.4 2.1 1.1 1 2.2 2.2 1.2 1.1 2.2 2.2 1.1 1.2 2.1 2.4 1 1.3 1.9 2.5 1 1.3 1.8 2.6 0.9 1.3 1.7 2.7 0.8 1.3 1.6 2.7 0.7 1.4 1.4 2.8 0.7 1.5 1.3 2.9 0.6 1.5 1.1 3 0.6 1.5 1 3 0.5 1.5 0.9 3 0.3 1.5 0.7 3.1 0.3 1.5 0.5 3.1 0.2 1.6 0.4 3.1 0 0.4 0 0.8 0.1 1.2 0.2 2.4 0.1 1.6 0.1 3.2-0.1 2.2-0.3 4.4-0.1 2.4-0.4 4.7-0.6 4.6-1.9 9-1.3 4.4-3.2 8.6-1.9 4.2-4.4 8-2.5 3.9-5.5 7.4-3 3.5-6.5 6.5-3.5 3-7.4 5.5-3.8 2.5-8 4.4-4.2 1.9-8.6 3.2-4.4 1.3-9 1.9-2.3 0.3-4.6 0.4-2.3 0.2-4.6 0.3-2.3-0.1-4.7-0.3-2.2-0.1-4.4-0.4-4.6-0.6-9-1.9-4.4-1.3-8.6-3.2-4.2-1.9-8-4.4-3.9-2.5-7.4-5.5-3.5-3-6.5-6.5-3-3.5-5.5-7.4-2.5-3.8-4.4-8-1.9-4.2-3.2-8.6-1.3-4.4-1.9-9-0.3-2.3-0.4-4.7c-0.1-1.5 0-3-0.1-4.5 0.1-1.8 0-3.7 0.2-5.5q0.1-1.8 0.3-3.6 0.6-4.6 1.9-9 1.3-4.4 3.2-8.6 1.9-4.2 4.4-8 2.5-3.9 5.5-7.4 3-3.5 6.5-6.5 3.5-3 7.4-5.5 3.8-2.5 8-4.4 4.2-1.9 8.6-3.2 4.4-1.3 9-1.9 2.2-0.3 4.4-0.4 2.4-0.2 4.7-0.3 1.6 0 3.2 0.1zm1.4 34.4c7.3-0.1 13.4-0.9 18.3-2-5.9-17.5-16.3-21.9-18.3-22.6zm-9.3-24.3c-2 0.6-12.1 4.7-18.2 21.4 4.9 1.2 10.9 2.1 18.2 2.6v-24q0 0 0 0zm28.3 4.9c3.3 4.3 5.7 9.6 7.5 14.9 3.5-1.4 6.1-2.9 7.8-4.1q-0.5-0.6-1.1-1.1-1.1-1.1-2.2-2-1.1-1-2.3-1.9-1.2-0.9-2.4-1.7-1.3-0.8-2.6-1.6-1.2-0.8-2.5-1.4-1.4-0.7-2.7-1.4-1.4-0.6-2.7-1.1zm-48.5 0.6q-3.8 2-7.3 4.5-3.4 2.5-6.5 5.5c1.8 1 4.2 2.2 7.6 3.4 1.8-4.9 4.1-9.8 7.2-13.8-0.3 0.1-0.7 0.3-1 0.4zm-24 23.9q-1.9 3.8-3.3 7.9-1.3 4.1-2 8.3-0.1 1.5-0.2 3h18.1c0.1-1.7 0.4-11 2.8-21.3-5.1-1.8-8.9-3.5-11.3-4.6q-2.2 3.2-4.1 6.7zm82.2-1.9c2.4 10.5 2.6 19.8 2.7 21.1h18.6q0-0.1 0-0.3-0.1-1.5-0.4-2.9-0.2-1.5-0.5-2.9-0.4-1.5-0.8-2.9-0.4-1.4-0.8-2.8-0.5-1.5-1.1-2.8-0.5-1.4-1.1-2.7-0.7-1.4-1.4-2.7-0.6-1.3-1.4-2.6-0.8-1.2-1.6-2.5-0.2-0.2-0.4-0.5c-2.7 1.2-6.7 2.9-11.8 4.5zm-60.7 21.1h22.7v-15.7c-7.6-0.4-14.5-1.7-20.5-3.2-1.2 5.3-2 11.6-2.2 18.9zm32-15.7v15.7h22.5c-0.2-7.2-1-13.4-2.1-18.7-6.1 1.4-13 2.6-20.4 3zm-32.4 25.8c0.2 7.3 1 13.6 2.1 19 6.2-1.6 13.3-2.8 21-3.2v-15.9zm32.3 15.9c7.5 0.4 14.4 1.7 20.5 3.2 1.2-5.4 2-11.7 2.2-19.1h-22.7zm28.6 5.5c5.6 1.9 9.8 3.7 12.2 4.8 1.3-1.9 2.6-3.9 3.6-6q2-3.8 3.3-7.9 1.4-4.1 2-8.3 0.3-2.1 0.4-4.1h-18.5c-0.1 1.4-0.6 10.9-3 21.5zm-87.6-21.4c0 0 0.1 2.6 0.3 4q0.7 4.2 2 8.3 1.4 4.1 3.3 7.9c1 2 2.2 3.9 3.4 5.8 2.5-1.2 6.4-2.9 11.6-4.7-2.5-11-2.8-20.7-2.8-21.3zm59 49.6c2.9-1.2 12.6-6.5 18.3-23.1-4.9-1.2-11-2.1-18.3-2.2zm-27.9-22.3c6.3 17.9 17.3 21.9 18.7 22.4v-25c-7.5 0.4-13.7 1.4-18.7 2.6zm46.7 17.6c0.5-0.3 1.1-0.5 1.6-0.8q3.9-1.9 7.4-4.5 3.5-2.5 6.5-5.5 0.2-0.2 0.3-0.3c-1.7-1.3-4.3-3-8.2-4.6-1.8 5.7-4.3 11.2-7.6 15.7zm-62.9-11.6c0.3 0.2 0.5 0.5 0.8 0.8q3 3 6.5 5.5 3.5 2.6 7.4 4.5 0.4 0.2 0.8 0.4c-3.3-4.3-5.7-9.5-7.5-14.9-3.6 1.3-6.2 2.6-8 3.7z"/>
		<path id="path51" fill-rule="evenodd" class="s2" d="m1222.1 459.8v67.1h-717.2v-67.1zm-527.4 14.4q-0.3 0-0.7 0-0.4 0.1-0.7 0.1-0.4 0.1-0.7 0.2-0.4 0-0.8 0.1-0.3 0.1-0.6 0.2-0.4 0.1-0.7 0.2-0.4 0.2-0.7 0.3-0.3 0.1-0.6 0.3-0.3 0.2-0.7 0.3-0.3 0.2-0.6 0.4-0.3 0.2-0.6 0.3-0.2 0.2-0.5 0.5-0.3 0.2-0.6 0.4-0.2 0.2-0.5 0.4-0.3 0.3-0.5 0.5-0.2 0.3-0.5 0.5-0.2 0.3-0.4 0.6-0.3 0.2-0.5 0.5-0.2 0.3-0.4 0.6-0.2 0.3-0.4 0.6-0.1 0.3-0.3 0.6-0.2 0.3-0.3 0.6-0.2 0.3-0.3 0.7-0.1 0.3-0.3 0.6-0.1 0.3-0.2 0.7-0.1 0.3-0.2 0.7-0.1 0.3-0.2 0.7 0 0.3-0.1 0.7 0 0.4-0.1 0.7 0 0.4 0 0.8-0.1 0.4-0.1 0.7v9.2q0 0.4 0.1 0.8 0 0.3 0 0.7 0.1 0.4 0.1 0.7 0.1 0.4 0.1 0.8 0.1 0.3 0.2 0.7 0.1 0.3 0.2 0.7 0.1 0.3 0.2 0.6 0.2 0.4 0.3 0.7 0.1 0.3 0.3 0.6 0.1 0.4 0.3 0.7 0.2 0.3 0.3 0.6 0.2 0.3 0.4 0.6 0.2 0.3 0.4 0.5 0.2 0.3 0.5 0.6 0.2 0.3 0.4 0.5 0.3 0.3 0.5 0.5 0.2 0.3 0.5 0.5 0.3 0.2 0.5 0.5 0.3 0.2 0.6 0.4 0.3 0.2 0.5 0.4 0.3 0.2 0.6 0.4 0.3 0.2 0.6 0.3 0.4 0.2 0.7 0.3 0.3 0.2 0.6 0.3 0.3 0.2 0.7 0.3 0.3 0.1 0.7 0.2 0.3 0.1 0.6 0.2 0.4 0.1 0.8 0.2 0.3 0.1 0.7 0.1 0.3 0.1 0.7 0.1 0.4 0 0.7 0.1 0.4 0 0.8 0 0.4 0 0.7 0 0.4-0.1 0.8-0.1 0.3 0 0.7-0.1 0.4 0 0.7-0.1 0.4-0.1 0.7-0.2 0.4-0.1 0.7-0.2 0.4-0.1 0.7-0.2 0.3-0.1 0.7-0.3 0.3-0.1 0.6-0.3 0.3-0.1 0.6-0.3 0.3-0.1 0.6-0.3 0.3-0.2 0.6-0.4 0.3-0.2 0.6-0.4 0.3-0.2 0.6-0.4 0.2-0.3 0.5-0.5 0.2-0.2 0.5-0.5 0.2-0.2 0.5-0.5 0.2-0.2 0.4-0.5 0.2-0.3 0.4-0.6 0.3-0.2 0.5-0.5 0.1-0.3 0.3-0.6 0.2-0.3 0.4-0.6 0.1-0.3 0.3-0.7 0.2-0.3 0.3-0.6 0.1-0.3 0.2-0.7 0.2-0.3 0.3-0.6 0.1-0.4 0.2-0.7 0.1-0.4 0.1-0.7 0.1-0.4 0.2-0.8 0-0.3 0.1-0.7 0 0 0 0h-5.6q0 0.3-0.1 0.6-0.1 0.5-0.3 1-0.2 0.5-0.4 0.9-0.2 0.5-0.5 0.9-0.2 0.5-0.5 0.9-0.3 0.4-0.6 0.7-0.3 0.4-0.6 0.7-0.4 0.4-0.7 0.7-0.4 0.3-0.8 0.5-0.4 0.3-0.8 0.5-0.2 0.1-0.4 0.2-0.2 0.1-0.5 0.1-0.2 0.1-0.4 0.2-0.2 0-0.4 0.1-0.3 0.1-0.5 0.1-0.2 0-0.5 0.1-0.2 0-0.4 0-0.3 0-0.5 0-0.3 0-0.5 0-0.2 0-0.5 0-0.2-0.1-0.4-0.1-0.2 0-0.5-0.1-0.2-0.1-0.4-0.1-0.2-0.1-0.5-0.2-0.2 0-0.4-0.1-0.2-0.1-0.4-0.2-0.4-0.2-0.8-0.5-0.4-0.2-0.8-0.5-0.3-0.3-0.7-0.7-0.3-0.3-0.6-0.7-0.3-0.3-0.6-0.7-0.3-0.4-0.6-0.9-0.2-0.4-0.4-0.9-0.2-0.4-0.4-0.9-0.2-0.5-0.3-1-0.2-0.5-0.2-1.1-0.1-0.5-0.2-1 0-0.6 0-1.2v-6.8q0-0.6 0-1.1 0.1-0.6 0.2-1.1 0-0.5 0.2-1 0.1-0.6 0.3-1 0.2-0.5 0.4-1 0.2-0.5 0.4-0.9 0.3-0.4 0.6-0.8 0.3-0.4 0.6-0.8 0.3-0.4 0.6-0.7 0.4-0.3 0.7-0.6 0.4-0.3 0.8-0.6 0.4-0.2 0.8-0.4 0.2-0.1 0.4-0.2 0.2-0.1 0.4-0.2 0.3-0.1 0.5-0.1 0.2-0.1 0.4-0.2 0.3 0 0.5-0.1 0.2 0 0.4 0 0.3 0 0.5-0.1 0.2 0 0.5 0 0.2 0 0.5 0 0.2 0 0.4 0.1 0.3 0 0.5 0 0.2 0.1 0.5 0.1 0.2 0.1 0.4 0.2 0.2 0 0.4 0.1 0.3 0.1 0.5 0.2 0.2 0.1 0.4 0.2 0.4 0.2 0.8 0.4 0.4 0.3 0.8 0.6 0.3 0.3 0.7 0.6 0.3 0.3 0.6 0.7 0.3 0.4 0.6 0.8 0.3 0.4 0.5 0.8 0.3 0.4 0.5 0.9 0.2 0.5 0.4 1 0.2 0.4 0.3 1 0 0 0 0h5.6q0-0.1 0-0.2-0.1-0.4-0.2-0.7 0-0.4-0.1-0.7-0.1-0.4-0.2-0.7-0.1-0.4-0.3-0.7-0.1-0.3-0.2-0.6-0.1-0.4-0.3-0.7-0.2-0.3-0.3-0.6-0.2-0.3-0.4-0.6-0.2-0.3-0.3-0.6-0.2-0.3-0.5-0.6-0.2-0.3-0.4-0.5-0.2-0.3-0.4-0.6-0.3-0.2-0.5-0.5-0.3-0.2-0.5-0.5-0.3-0.2-0.6-0.4-0.2-0.2-0.5-0.4-0.3-0.3-0.6-0.5-0.3-0.1-0.6-0.3-0.3-0.2-0.6-0.4-0.3-0.1-0.6-0.3-0.3-0.2-0.6-0.3-0.4-0.1-0.7-0.3-0.3-0.1-0.7-0.2-0.3-0.1-0.7-0.2-0.3-0.1-0.7-0.1-0.3-0.1-0.7-0.2-0.4 0-0.7-0.1-0.4 0-0.8 0-0.3 0-0.7 0-0.4 0-0.8 0zm-144.7 1q-2.7 1.2-4.2 3.5-1.5 2.3-1.5 5.2 0 3.7 2.3 6.2 2.4 2.4 7.1 4.1 2 0.6 3.8 1.3 1.9 0.6 3.5 1.5 1.5 0.8 2.4 2.1 0.9 1.3 0.9 3.2 0 1.9-1 3.2-0.9 1.2-2.6 1.9-1.6 0.6-3.8 0.6-2.7 0-4.5-0.9-1.8-1.1-2.7-2.7-0.8-1.7-0.9-3.7h-5.6q0.1 3.5 1.8 6.2 1.7 2.7 4.7 4.2 3.1 1.4 7.2 1.4 4.2 0 7-1.5 2.9-1.5 4.3-4 1.5-2.4 1.5-5.2 0-3.2-1.4-5.1-1.3-2.1-3.5-3.3-2.2-1.4-5-2.3-2.4-0.9-4.2-1.6-1.9-0.8-3.2-1.5-1.3-0.8-2-1.9-0.6-1.1-0.6-2.6 0-1.9 0.8-3 0.8-1.2 2.3-1.7c0.9-0.4 3.2-0.4 4.4-0.3 2 0.2 3.4 1.1 4.4 1.6q1.5 0.8 2.3 2.2c0.6 0.9 1.2 2.1 1.2 3.3l4.8-0.1q0-3.2-1.6-5.5c-1-1.6-1.9-2.8-3.7-3.7-1.8-0.9-4-1.6-6.8-1.9q-0.9-0.1-2-0.1c-2.1 0-4.5 0.2-5.9 0.9zm199 0q-2.7 1.2-4.2 3.5-1.5 2.3-1.5 5.2 0 3.7 2.3 6.2 2.4 2.4 7.1 4.1 2 0.6 3.8 1.3 1.9 0.6 3.5 1.5 1.5 0.8 2.4 2.1 0.9 1.3 0.9 3.2 0 1.9-1 3.2-0.9 1.2-2.6 1.9-1.6 0.6-3.8 0.6-2.7 0-4.5-0.9-1.8-1.1-2.7-2.7-0.9-1.7-0.9-3.7h-5.6q0 3.5 1.8 6.2 1.7 2.7 4.7 4.2 3.1 1.4 7.2 1.4 4.2 0 7-1.5 2.9-1.5 4.3-4 1.4-2.4 1.4-5.2 0-3.2-1.3-5.1-1.3-2.1-3.5-3.3-2.2-1.4-5-2.3-2.4-0.9-4.2-1.6-1.9-0.8-3.2-1.5-1.3-0.8-2-1.9-0.6-1.1-0.6-2.6 0-1.9 0.7-3 0.9-1.2 2.3-1.7c1-0.4 3.3-0.4 4.5-0.3 2 0.2 3.4 1.1 4.4 1.6q1.5 0.8 2.3 2.2c0.5 0.9 1.1 2.1 1.2 3.3l4.8-0.1q0-3.2-1.6-5.5c-1-1.6-1.9-2.8-3.7-3.7-1.9-0.9-4-1.6-6.8-1.9q-0.9-0.1-2-0.1c-2.1 0-4.5 0.2-5.9 0.9zm290-0.5v37.3h5.3v-28.3l11 28.3h4.7l11-26.4v26.4h5.3v-37.3h-2.6-4.4l-11.5 29.8-11.8-29.8h-3.3c0 0-3.7 0-3.7 0zm-370.1 37.3h5.3v-37.3h-5.3zm183 0h5.3v-37.4h-5.3zm174 0h5.3v-37.3h-5.3zm58.4 0h5.4v-37.3h-5.4zm-479.6 0h5.4v-15.1h6.9l9.2 15.1 5.5-0.3-8.7-15.6c0.1 0 0.2-0.1 0.3-0.2 0.3-0.1 0.3-0.1 0.5-0.2q0.4-0.1 0.8-0.3 0.3-0.2 0.7-0.4 0.3-0.2 0.6-0.5 0.3-0.2 0.6-0.4 0.3-0.3 0.6-0.5 0.2-0.3 0.5-0.5 0.2-0.3 0.4-0.6 0.2-0.3 0.4-0.6 0.2-0.3 0.4-0.6 0.2-0.3 0.3-0.6 0.2-0.3 0.3-0.7 0.1-0.3 0.2-0.7 0.1-0.3 0.2-0.6 0.1-0.4 0.2-0.7 0-0.4 0.1-0.8 0-0.3 0.1-0.7 0-0.3 0-0.7 0-0.4 0-0.8-0.1-0.4-0.1-0.7-0.1-0.4-0.1-0.8-0.1-0.3-0.2-0.7-0.1-0.3-0.2-0.7-0.1-0.3-0.2-0.7-0.1-0.3-0.3-0.6-0.1-0.3-0.3-0.6-0.2-0.3-0.4-0.6-0.2-0.3-0.4-0.6-0.2-0.3-0.4-0.6-0.3-0.2-0.5-0.5-0.3-0.2-0.6-0.5-0.2-0.2-0.5-0.4-0.4-0.2-0.7-0.4-0.3-0.2-0.7-0.4-0.3-0.2-0.7-0.4-0.4-0.1-0.8-0.3-0.4-0.1-0.8-0.2-0.4-0.1-0.9-0.2-0.4-0.1-0.9-0.2-0.5-0.1-1-0.1-0.5-0.1-1-0.1-0.6 0-1.1 0h-12.7zm215.3 0h5.3v-15.2h7l9.2 15.1 5.4-0.2-8.7-15.6c0.2-0.1 0.2-0.1 0.4-0.2 0.3-0.1 0.2-0.1 0.5-0.2q0.4-0.2 0.7-0.4 0.4-0.1 0.7-0.4 0.4-0.2 0.7-0.4 0.3-0.2 0.6-0.4 0.3-0.3 0.5-0.5 0.3-0.3 0.5-0.6 0.3-0.2 0.5-0.5 0.2-0.3 0.4-0.6 0.2-0.3 0.3-0.6 0.2-0.3 0.4-0.7 0.1-0.3 0.3-0.6 0.1-0.3 0.2-0.7 0.1-0.3 0.2-0.7 0.1-0.3 0.1-0.7 0.1-0.3 0.1-0.7 0.1-0.3 0.1-0.7 0-0.4 0-0.8 0-0.3 0-0.7 0-0.4-0.1-0.8 0-0.4-0.1-0.7 0-0.4-0.1-0.7-0.1-0.4-0.2-0.7-0.1-0.4-0.2-0.7-0.2-0.3-0.3-0.6-0.2-0.3-0.4-0.7-0.1-0.3-0.3-0.6-0.2-0.3-0.4-0.5-0.2-0.3-0.5-0.6-0.2-0.3-0.5-0.5-0.2-0.3-0.5-0.5-0.3-0.2-0.6-0.4-0.3-0.3-0.6-0.5-0.4-0.2-0.7-0.4-0.4-0.1-0.8-0.3-0.3-0.2-0.7-0.3-0.4-0.1-0.9-0.3-0.4-0.1-0.8-0.2-0.5-0.1-1-0.1-0.5-0.1-1-0.2-0.5 0-1 0-0.5 0-1.1 0h-12.6zm274.2-32.6l11.8 0.1v32.2h5.4v-32.2h10.9v-4.7h-28.1zm-518.3 32.3h23.3v-4.3h-18l-0.1-12.8 15.2-0.1v-4.2l-15.2 0.1 0.1-11.3h18v-4.3h-23.3zm70.1-0.1l4.2-0.1 13.7-36.7h-5.9l-10 29.2h-0.2l-10-29.2h-5.5zm69.5 0.1h23.3v-4.3h-18l-0.1-12.8 15.1-0.1v-4.2l-15.1 0.1 0.1-11.3h18v-4.3h-23.3zm160-0.2h4.1l13.8-36.8h-5.9l-10.1 29.3h-0.2l-9.9-29.3h-5.5zm47.6-36.7l0.1 4.7h10.8v32.2h5.5l-0.1-32.3h11.8v-4.7zm33.2 36.9h23.3v-4.3h-18l-0.1-12.8 15.2-0.1v-4.2l-15.2 0.1 0.1-11.3h18v-4.3h-23.3zm41.6 0l22 0.1 0.1-4.5h-16.8v-32.6h-5.5zm130 0h23.2v-4.3h-18v-12.7l15.1-0.2v-4.2l-15.1 0.1v-11.3h18v-4.3h-23.2zm28.9 0h10.5q1.2 0 2.3-0.2 1.2-0.1 2.3-0.4 1.1-0.4 2.1-0.9 1.1-0.4 2-1.1 1-0.6 1.9-1.4 0.8-0.7 1.6-1.6 0.8-0.9 1.4-1.9 0.6-1 1.1-2 0.5-1.1 0.8-2.2 0.3-1.1 0.5-2.3 0.1-1.1 0.1-2.3v-4.2q0-0.4 0-0.8 0-0.4 0-0.8-0.1-0.4-0.1-0.8-0.1-0.4-0.2-0.8-0.1-0.4-0.2-0.8-0.1-0.4-0.2-0.8-0.1-0.4-0.2-0.7-0.2-0.4-0.3-0.8-0.2-0.4-0.3-0.7-0.2-0.4-0.4-0.7-0.2-0.4-0.4-0.7-0.2-0.4-0.4-0.7-0.2-0.4-0.5-0.7-0.2-0.3-0.4-0.6-0.3-0.3-0.6-0.6-0.2-0.3-0.5-0.6-0.3-0.3-0.6-0.6-0.3-0.2-0.6-0.5-0.3-0.3-0.6-0.5-0.3-0.2-0.7-0.5-0.3-0.2-0.6-0.4-0.4-0.2-0.7-0.4-0.4-0.2-0.7-0.3-0.4-0.2-0.8-0.4-0.3-0.1-0.7-0.3-0.4-0.1-0.8-0.2-0.3-0.1-0.7-0.2-0.4-0.1-0.8-0.2-0.4-0.1-0.8-0.1-0.4-0.1-0.8-0.1-0.4-0.1-0.8-0.1-0.4 0-0.8 0h-5.2-5.2zm-369.3-0.3h5.3l0.1-14.2h7.5q4.5 0 7.3-1.5 2.9-1.6 4.2-4.1 1.4-2.5 1.4-5.5 0-3.2-1.4-5.7-1.3-2.5-4.2-3.9-2.9-1.5-7.3-1.5h-12.8zm118.2-36.4l-8.4 22.4-1.7 4.4-3.7 9.8h5.5l3.6-9.8h14.5l3.6 9.8h5.5l-3.7-9.8-1.6-4.4-8.5-22.4h-2.5zm-288.9 3.9q0.5 0 0.9 0 0.5 0 0.9 0.1 0.5 0 0.9 0.1 0.4 0.1 0.8 0.2 0.3 0.1 0.6 0.3 0.4 0.1 0.7 0.3 0.3 0.2 0.5 0.4 0.3 0.2 0.5 0.4 0.2 0.2 0.4 0.5 0.2 0.2 0.4 0.5 0.2 0.2 0.3 0.5 0.2 0.3 0.3 0.6 0.1 0.3 0.2 0.7 0.1 0.3 0.1 0.6 0.1 0.4 0.1 0.7 0 0.4 0 0.8 0 0.4 0 0.7 0 0.4-0.1 0.7 0 0.4-0.1 0.7-0.1 0.4-0.2 0.7-0.2 0.3-0.3 0.6-0.1 0.3-0.3 0.6-0.2 0.2-0.4 0.5-0.2 0.3-0.4 0.5-0.3 0.2-0.5 0.5-0.3 0.2-0.6 0.3-0.3 0.2-0.6 0.4-0.3 0.1-0.7 0.2-0.4 0.2-0.8 0.3-0.4 0-0.8 0.1-0.4 0.1-0.9 0.1-0.4 0-0.9 0h-7v-13.6zm215.3 0q0.5 0 1 0 0.4 0 0.9 0.1 0.4 0 0.8 0.1 0.4 0.1 0.8 0.2 0.3 0.1 0.7 0.3 0.3 0.1 0.6 0.3 0.3 0.2 0.6 0.4 0.2 0.2 0.4 0.4 0.3 0.2 0.5 0.5 0.2 0.2 0.3 0.5 0.2 0.2 0.3 0.5 0.2 0.3 0.3 0.6 0.1 0.3 0.2 0.7 0.1 0.3 0.1 0.6 0.1 0.4 0.1 0.7 0.1 0.4 0.1 0.8-0.1 0.4-0.1 0.7 0 0.4-0.1 0.7 0 0.4-0.1 0.7-0.1 0.4-0.2 0.7-0.1 0.3-0.3 0.6-0.1 0.3-0.3 0.6-0.2 0.2-0.4 0.5-0.2 0.3-0.4 0.5-0.2 0.2-0.5 0.5-0.3 0.2-0.6 0.3-0.3 0.2-0.6 0.4-0.3 0.1-0.7 0.2-0.3 0.2-0.7 0.3-0.4 0-0.9 0.1-0.4 0.1-0.9 0.1-0.4 0-0.9 0h-7v-13.6zm-31.9 0.4q4.2 0 5.9 1.7 1.8 1.7 1.8 4.9 0 3.1-1.8 4.9-1.7 1.8-5.9 1.8h-7.2v-13.3zm367.8 0q0.3 0 0.6 0 0.3 0 0.6 0 0.3 0.1 0.6 0.1 0.3 0.1 0.7 0.2 0.3 0 0.5 0.1 0.3 0.1 0.6 0.2 0.3 0.2 0.6 0.3 0.3 0.1 0.6 0.3 0.2 0.1 0.5 0.3 0.3 0.1 0.5 0.3 0.3 0.2 0.5 0.4 0.3 0.2 0.5 0.4 0.2 0.2 0.4 0.4 0.3 0.2 0.5 0.5 0.2 0.2 0.4 0.5 0.2 0.2 0.3 0.5 0.2 0.2 0.4 0.5 0.1 0.3 0.3 0.6 0.1 0.2 0.2 0.5 0.2 0.3 0.3 0.6 0.1 0.3 0.2 0.6 0.1 0.3 0.2 0.6 0 0.3 0.1 0.6 0 0.3 0.1 0.7 0 0.3 0 0.6 0 0.3 0 0.6v6.1q0 1-0.1 2-0.2 1-0.5 2-0.4 0.9-0.9 1.8-0.5 0.9-1.1 1.7-0.7 0.7-1.4 1.4-0.8 0.7-1.7 1.2-0.8 0.5-1.8 0.8-0.9 0.4-1.9 0.5-1 0.2-2 0.2h-4.8v-28.1zm-254.1 18h-11.3l5.6-15.4z"/>
		<path id="path50" fill-rule="evenodd" class="s3" d="m511.3 220.1v8.2h142.2v-8.2zm0 16v8.3h142.2v-8.3zm0 15.4v8.3h41.6v182.6h8.3v-182.6h8.7v182.6h8.3v-182.6h8.5v182.6h8.2v-182.6h8.3v182.4h8.3v-182.4h42v-8.3z"/>
		<path id="path49" fill-rule="evenodd" class="s3" d="m670.3 220.3v221.8h7.7v-221.8zm16 0v221.8h7.7v-221.8zm15.4 0v221.8h7.7v-221.8zm16 0v0.1 8 8.1 8 7 8 52.1 8 8.1 8 7 8 52 8 7.9 7.9 7.1 7.9 0.6h7.7v-0.6h86v-7.9h-86v-7.1h86v-7.9h-86v-7.9h86v-8h-86v-52h45.2v-8h-45.2v-7h45.2v-8h-45.2v-8.1h45.2v-8h-45.2v-52.1h86v-8h-86v-7h86v-8h-86v-8.1h86v-8h-86v-0.1z"/>
		<path id="path48" fill-rule="evenodd" class="s3" d="m937.6 220.2q2.8 0.1 5.5 0.4 2.7 0.3 5.5 0.7 2.7 0.4 5.4 0.9 2.7 0.6 5.3 1.2 2.7 0.7 5.3 1.5 2.6 0.8 5.2 1.7 2.6 0.9 5.1 2 2.6 1 5 2.2 2.5 1.1 4.9 2.4 2.5 1.3 4.8 2.7 2.4 1.4 4.6 2.9 2.3 1.6 4.5 3.2 1.4 1 2.7 2l-7.1 7.5q-1.2-0.9-2.5-1.9-2.2-1.5-4.4-3-2.2-1.4-4.5-2.7-2.3-1.4-4.7-2.6-2.3-1.2-4.8-2.2-2.4-1.1-4.9-2.1-2.5-0.9-5-1.7-2.5-0.8-5.1-1.5-2.5-0.7-5.1-1.3-2.6-0.5-5.3-0.9-2.6-0.4-5.2-0.7-2.7-0.3-5.3-0.4-2.7-0.2-5.3-0.2-8 0-15.9 1.3-7.9 1.2-15.5 3.7-7.6 2.4-14.7 6-7.1 3.7-13.6 8.3-6.4 4.7-12.1 10.3-5.6 5.7-10.3 12.1-4.7 6.4-8.3 13.5-3.7 7.1-6.1 14.7-2.5 7.5-3.8 15.4-1.2 7.8-1.2 15.8 0 7.9 1.2 15.8 1.3 7.9 3.8 15.4 2.4 7.6 6.1 14.7 3.6 7.1 8.3 13.5 4.7 6.4 10.3 12 5.7 5.7 12.1 10.3 6.5 4.7 13.6 8.3 7.1 3.6 14.7 6.1 7.6 2.5 15.5 3.7 7.9 1.2 15.9 1.2 7.9 0 15.8-1.2 7.9-1.2 15.5-3.7 7.6-2.5 14.7-6.1 7.1-3.6 13.6-8.3 4-3 7.7-6.5l7.8 7q-1 1-2 1.9-6 5.2-12.7 9.5-6.7 4.3-14 7.6-7.3 3.3-15 5.6-7.6 2.2-15.5 3.4-7.9 1.1-15.9 1.1-8 0-15.9-1.1-8-1.2-15.6-3.4-7.7-2.3-15-5.6-7.2-3.3-14-7.6-6.7-4.3-12.7-9.5-6.1-5.2-11.3-11.2-5.2-6-9.6-12.7-4.3-6.7-7.6-14-3.3-7.2-5.6-14.9-2.2-7.6-3.4-15.5-1.1-7.9-1.1-15.8 0-8 1.1-15.9 1.2-7.8 3.4-15.5 2.3-7.6 5.6-14.8 3.3-7.3 7.6-14 4.4-6.7 9.6-12.7 5.2-6 11.3-11.2 6-5.2 12.7-9.5 6.8-4.4 14-7.7 7.3-3.3 15-5.5 7.6-2.3 15.6-3.4 7.9-1.1 15.9-1.1 2.7 0 5.4 0.1zm-0.4 18.8q2.5 0.1 5 0.4 2.5 0.2 5 0.6 2.5 0.4 4.9 1 2.5 0.5 4.9 1.2 2.4 0.7 4.8 1.5 2.4 0.8 4.8 1.7 2.3 0.9 4.6 2 2.3 1 4.5 2.2 2.2 1.2 4.4 2.5 2.1 1.3 4.2 2.7 2.1 1.4 4.1 2.9l-6.6 7q-1.9-1.4-3.9-2.8-2-1.3-4.1-2.5-2.1-1.2-4.3-2.2-2.1-1.1-4.4-2.1-2.2-0.9-4.5-1.7-2.2-0.9-4.6-1.5-2.3-0.7-4.6-1.3-2.4-0.5-4.8-1-2.4-0.4-4.8-0.7-2.4-0.2-4.8-0.4-2.4-0.1-4.8-0.1-7.3 0-14.5 1.2-7.2 1.3-14 3.8-6.9 2.4-13.2 6-6.3 3.6-11.9 8.3-5.5 4.6-10.2 10.1-4.7 5.6-8.4 11.8-3.6 6.3-6.1 13-2.5 6.8-3.7 13.9-1.3 7.1-1.3 14.3 0 7.2 1.3 14.3 1.2 7.1 3.7 13.9 2.5 6.8 6.1 13 3.7 6.3 8.4 11.8 4.7 5.5 10.2 10.2 5.6 4.6 11.9 8.2 6.3 3.6 13.2 6.1 6.8 2.5 14 3.7 7.2 1.3 14.5 1.3 7.2 0 14.4-1.3 7.2-1.2 14-3.7 6.9-2.5 13.2-6.1 6.3-3.6 11.8-8.2l7.6 6.9q-3.1 2.8-6.4 5.4-5.9 4.3-12.4 7.6-6.6 3.3-13.5 5.5-7 2.3-14.2 3.4-7.2 1.2-14.5 1.2-7.4 0-14.6-1.2-7.2-1.1-14.2-3.4-6.9-2.2-13.4-5.5-6.6-3.3-12.5-7.6-5.9-4.3-11.1-9.5-5.1-5.1-9.4-11-4.3-5.9-7.6-12.4-3.4-6.5-5.6-13.4-2.3-6.9-3.4-14.1-1.2-7.2-1.2-14.5 0-7.3 1.2-14.5 1.1-7.2 3.4-14.1 2.2-6.9 5.6-13.4 3.3-6.5 7.6-12.4 4.3-5.9 9.4-11.1 5.2-5.1 11.1-9.4 5.9-4.3 12.5-7.6 6.5-3.3 13.4-5.6 7-2.2 14.2-3.3 7.2-1.2 14.6-1.2 2.5 0 5 0.2zm-0.5 17q2.3 0.1 4.6 0.4 2.3 0.2 4.5 0.6 2.3 0.5 4.5 1 2.2 0.5 4.4 1.2 2.2 0.7 4.3 1.5 2.2 0.8 4.3 1.7 2 1 4.1 2 2 1.1 4 2.2 1.9 1.2 3.8 2.5 0.7 0.5 1.5 1.1l-7.5 7.8q-0.5-0.4-1-0.7-1.8-1.2-3.6-2.3-1.9-1-3.8-1.9-1.9-1-3.8-1.8-2-0.8-4-1.5-2-0.6-4.1-1.2-2-0.5-4.1-0.9-2.1-0.5-4.2-0.7-2.1-0.3-4.3-0.4-2.1-0.2-4.2-0.2-6.4 0-12.7 1.3-6.3 1.2-12.2 3.6-5.9 2.5-11.2 6-5.3 3.5-9.9 8-4.5 4.5-8.1 9.7-3.5 5.3-6 11.2-2.4 5.8-3.7 12.1-1.2 6.2-1.2 12.5 0 6.4 1.2 12.6 1.3 6.2 3.7 12.1 2.5 5.8 6 11.1 3.6 5.3 8.1 9.8 4.6 4.5 9.9 8 5.3 3.5 11.2 5.9 5.9 2.5 12.2 3.7 6.3 1.2 12.7 1.2 6.4 0 12.7-1.2 6.3-1.2 12.2-3.7 5.9-2.4 11.2-5.9 1.8-1.4 3.5-2.9l8.2 7.4q-4.6 3.9-9.9 6.9-5.7 3.3-11.9 5.5-6.3 2.3-12.8 3.4-6.5 1.1-13.1 1.1-6.7 0-13.2-1.1-6.5-1.1-12.8-3.4-6.2-2.2-11.9-5.5-5.8-3.3-10.8-7.5-5.1-4.2-9.4-9.3-4.2-5-7.6-10.7-3.3-5.7-5.5-11.8-2.3-6.2-3.5-12.6-1.1-6.5-1.1-13.1 0-6.5 1.1-13 1.2-6.5 3.5-12.6 2.2-6.2 5.5-11.9 3.4-5.7 7.6-10.7 4.3-5 9.4-9.2 5-4.3 10.8-7.5 5.7-3.3 11.9-5.6 6.3-2.2 12.8-3.3 6.5-1.2 13.2-1.2 2.2 0 4.5 0.2zm-2.3 18.2q2 0.2 3.9 0.4 1.9 0.3 3.7 0.7 1.9 0.4 3.8 0.9 1.8 0.5 3.6 1.2 1.8 0.6 3.6 1.4 1.8 0.8 3.5 1.7 1.7 0.9 3.3 1.9c0.8 0.5 1.8 1.1 2.6 1.6l-8 8.3q-0.6-0.4-1.3-0.8-1.4-0.8-2.9-1.6-1.6-0.7-3.1-1.3-1.6-0.7-3.2-1.2-1.6-0.5-3.3-0.8-1.6-0.4-3.3-0.7-1.6-0.2-3.3-0.4-1.7-0.1-3.4-0.1c-3.4 0-6.7 0.4-10 1.2-3.3 0.7-6.5 1.8-9.5 3.3-3.1 1.5-5.9 3.3-8.6 5.5-2.6 2.1-5 4.5-7.1 7.2-2.1 2.7-3.9 5.6-5.4 8.7-1.4 3-2.5 6.3-3.3 9.6q-1.1 5-1.1 10.2c0 3.4 0.4 6.8 1.1 10.1 0.8 3.4 1.9 6.6 3.3 9.7 1.5 3.1 3.3 6 5.4 8.7q3.2 4 7.1 7.2c2.7 2.1 5.5 3.9 8.6 5.4q4.5 2.3 9.5 3.4c3.3 0.8 6.6 1.1 10 1.1 3.4 0 6.7-0.3 10-1.1 3.3-0.8 6.5-1.9 9.6-3.4 1.9-1 4.4-2.9 6.1-4.2l8.9 7.9c-0.7 0.7-2.6 1.9-3.4 2.6q-4.6 3.1-9.7 5.2-5.1 2.2-10.5 3.3-5.5 1.1-11 1.1-5.5 0-10.9-1.1-5.5-1.1-10.6-3.3-5.1-2.1-9.7-5.2-4.6-3.2-8.5-7.1-3.9-4-7-8.7-3.1-4.6-5.2-9.8-2.1-5.2-3.2-10.7-1.1-5.5-1.1-11.1 0-5.6 1.1-11.1 1.1-5.5 3.2-10.7 2.1-5.2 5.2-9.9 3.1-4.6 7-8.6 3.9-4 8.5-7.1 4.6-3.1 9.7-5.3 5.1-2.1 10.6-3.2 5.4-1.1 10.9-1.1 1.9 0 3.8 0.1z"/>
		<path id="path47" fill-rule="evenodd" class="s3" d="m1037.4 220.3v221.8h-7.6v-221.8zm15.9 0v221.8h-7.7v-221.8zm15.3 0v221.8h-7.7v-221.8zm16.1 0v91.1h81.9v-91.1h7.7v221.8h-7.7v-91.5h-81.9v91.5h-7.7v-221.8zm105.2 0v221.8h-7.7v-221.8zm16.1 0v221.8h-7.7v-221.8zm16.1 0v221.8h-7.7v-221.8zm-137.3 107.1h81.9v-8.1h-81.9zm0 15.3h81.9v-7.3h-81.9z"/>
		<path id="path45" fill-rule="evenodd" class="s4" d="m668.9 474.7v37.3h5.4v-37.3z"/>
		<path id="path43" fill-rule="evenodd" class="s4" d="m632.3 474.9l13.8 36.8h4.1l13.7-36.8h-5.8l-10.1 29.3h-0.2l-10-29.3z"/>
		<path id="path42" fill-rule="evenodd" class="s4" d="m617.4 474.7q0.6 0 1.1 0 0.5 0.1 1 0.1 0.5 0.1 1 0.1 0.5 0.1 0.9 0.2 0.5 0.1 0.9 0.2 0.4 0.1 0.9 0.3 0.4 0.1 0.7 0.3 0.4 0.1 0.8 0.3 0.3 0.2 0.6 0.4 0.4 0.2 0.7 0.4 0.3 0.2 0.6 0.5 0.3 0.2 0.5 0.5 0.3 0.2 0.5 0.5 0.3 0.2 0.5 0.5 0.2 0.3 0.4 0.6 0.2 0.3 0.3 0.6 0.2 0.3 0.4 0.6 0.1 0.4 0.2 0.7 0.2 0.3 0.3 0.7 0.1 0.3 0.2 0.6 0.1 0.4 0.1 0.8 0.1 0.3 0.1 0.7 0.1 0.4 0.1 0.7 0 0.4 0 0.8 0 0.4 0 0.8 0 0.3-0.1 0.7 0 0.3-0.1 0.7 0 0.4-0.1 0.7-0.1 0.3-0.2 0.7-0.1 0.3-0.3 0.7-0.1 0.3-0.2 0.6-0.2 0.3-0.4 0.7-0.1 0.3-0.3 0.6-0.2 0.3-0.4 0.6-0.3 0.2-0.5 0.5-0.2 0.3-0.5 0.5-0.3 0.3-0.5 0.5-0.3 0.3-0.6 0.5-0.4 0.2-0.7 0.4-0.3 0.2-0.7 0.4-0.3 0.2-0.7 0.4c-0.3 0.1-0.3 0.1-0.5 0.2-0.2 0-0.3 0.1-0.4 0.2l8.7 15.5-5.4 0.3-9.3-15.1h-6.9v15.2h-5.3v-37.4zm-7.3 18.2h6.9q0.5 0 1-0.1 0.4 0 0.9-0.1 0.4 0 0.8-0.1 0.4-0.1 0.7-0.2 0.4-0.1 0.7-0.3 0.4-0.1 0.7-0.3 0.3-0.2 0.5-0.4 0.3-0.2 0.5-0.5 0.2-0.2 0.4-0.5 0.3-0.2 0.4-0.5 0.2-0.3 0.3-0.6 0.2-0.3 0.3-0.6 0.1-0.3 0.2-0.6 0.1-0.4 0.2-0.7 0-0.4 0-0.7 0.1-0.4 0.1-0.8 0-0.4 0-0.7-0.1-0.4-0.1-0.7-0.1-0.4-0.2-0.7-0.1-0.3-0.2-0.6-0.1-0.4-0.2-0.6-0.2-0.3-0.3-0.6-0.2-0.3-0.4-0.5-0.2-0.3-0.4-0.5-0.3-0.2-0.5-0.4-0.3-0.2-0.6-0.4-0.3-0.1-0.6-0.3-0.3-0.1-0.7-0.2-0.4-0.2-0.8-0.2-0.4-0.1-0.8-0.2-0.5 0-0.9-0.1-0.5 0-1 0h-6.9z"/>
		<path id="path41" fill-rule="evenodd" class="s4" d="m575.9 474.9v37h23.3v-4.4h-18l-0.1-12.7 15.2-0.2v-4.2l-15.2 0.2 0.1-11.4h18v-4.3z"/>
		<path id="path40" fill-rule="evenodd" class="s4" d="m556 474.3c-2.2 0-4.6 0.2-5.9 0.9q-2.8 1.2-4.3 3.5-1.4 2.3-1.4 5.2 0 3.7 2.2 6.2 2.4 2.4 7.1 4.1 2 0.6 3.9 1.3 1.8 0.6 3.4 1.5 1.5 0.8 2.4 2.1 0.9 1.3 0.9 3.2 0 1.9-1 3.2-0.9 1.2-2.5 1.9-1.7 0.6-3.9 0.6-2.6 0-4.4-0.9-1.9-1.1-2.8-2.7-0.8-1.7-0.9-3.7h-5.6q0.1 3.5 1.8 6.2 1.7 2.7 4.7 4.2 3.1 1.4 7.2 1.4 4.3 0 7.1-1.5 2.8-1.5 4.2-4 1.5-2.4 1.5-5.2 0-3.2-1.3-5.1-1.3-2.1-3.6-3.3-2.2-1.4-4.9-2.3-2.4-0.9-4.3-1.6-1.9-0.8-3.2-1.5-1.3-0.8-2-1.9-0.6-1.1-0.6-2.6 0-1.9 0.8-3 0.8-1.2 2.3-1.7c0.9-0.4 3.2-0.4 4.4-0.3 2.1 0.2 3.5 1.1 4.5 1.6q1.5 0.8 2.3 2.2c0.5 0.9 1.1 2.1 1.1 3.3l4.8-0.1q0-3.2-1.5-5.5c-1.1-1.6-2-2.8-3.8-3.7-1.8-0.9-4-1.6-6.7-1.9q-0.9-0.1-2-0.1z"/>
		<path id="path38" fill-rule="evenodd" class="s4" d="m755 474.3c-2.2 0-4.6 0.2-6 0.9q-2.7 1.2-4.2 3.5-1.5 2.3-1.5 5.2 0 3.7 2.3 6.2 2.4 2.4 7.1 4.1 2 0.6 3.9 1.3 1.8 0.6 3.4 1.5 1.5 0.8 2.4 2.1 0.9 1.3 0.9 3.2 0 1.9-1 3.2-0.9 1.2-2.5 1.9-1.7 0.6-3.9 0.6-2.6 0-4.5-0.9-1.8-1.1-2.7-2.7-0.8-1.7-0.9-3.7h-5.6q0.1 3.5 1.8 6.2 1.7 2.7 4.7 4.2 3.1 1.4 7.2 1.4 4.2 0 7.1-1.5 2.8-1.5 4.2-4 1.5-2.4 1.5-5.2 0-3.2-1.4-5.1-1.2-2.1-3.5-3.3-2.2-1.4-4.9-2.3-2.4-0.9-4.3-1.6-1.9-0.8-3.2-1.5-1.3-0.8-2-1.9-0.6-1.1-0.6-2.6 0-1.9 0.8-3 0.8-1.2 2.3-1.7c0.9-0.4 3.2-0.4 4.4-0.3 2.1 0.2 3.5 1.1 4.5 1.6q1.4 0.8 2.2 2.2c0.6 0.9 1.2 2.1 1.2 3.3l4.8-0.1q0-3.2-1.5-5.5c-1.1-1.6-2-2.8-3.8-3.7-1.8-0.9-4-1.6-6.7-1.9q-0.9-0.1-2-0.1z"/>
		<path id="path36" fill-rule="evenodd" class="s4" d="m715.6 474.9v37h23.2v-4.4h-18v-12.7l15.1-0.2v-4.2l-15.1 0.2v-11.4h18v-4.3z"/>
		<path id="path34" fill-rule="evenodd" class="s4" d="m800.6 475.2q4.4 0 7.3 1.5 2.9 1.4 4.2 3.9 1.4 2.5 1.4 5.7 0 3-1.4 5.5-1.3 2.5-4.2 4.1-2.8 1.5-7.3 1.5h-7.5l-0.1 14.2h-5.3l0.1-36.4zm-7.5 17.7h7.3q4.1 0 5.9-1.8 1.8-1.8 1.8-4.8 0-3.2-1.8-4.9-1.8-1.8-5.9-1.8h-7.3z"/>
		<path id="path33" fill-rule="evenodd" class="s4" d="m832.7 474.7q0.5 0 1 0 0.6 0.1 1.1 0.1 0.5 0.1 1 0.1 0.4 0.1 0.9 0.2 0.4 0.1 0.9 0.2 0.4 0.1 0.8 0.3 0.4 0.1 0.8 0.3 0.4 0.1 0.7 0.3 0.4 0.2 0.7 0.4 0.3 0.2 0.6 0.4 0.3 0.2 0.6 0.5 0.3 0.2 0.6 0.5 0.2 0.2 0.5 0.5 0.2 0.2 0.4 0.5 0.2 0.3 0.4 0.6 0.2 0.3 0.4 0.6 0.1 0.3 0.3 0.6 0.2 0.4 0.3 0.7 0.1 0.3 0.2 0.7 0.1 0.3 0.2 0.6 0.1 0.4 0.2 0.8 0 0.3 0.1 0.7 0 0.4 0 0.7 0.1 0.4 0.1 0.8 0 0.4-0.1 0.8 0 0.3 0 0.7-0.1 0.3-0.1 0.7-0.1 0.4-0.2 0.7-0.1 0.3-0.2 0.7-0.1 0.3-0.2 0.7-0.1 0.3-0.3 0.6-0.2 0.3-0.3 0.7-0.2 0.3-0.4 0.6-0.2 0.3-0.4 0.6-0.2 0.2-0.4 0.5-0.3 0.3-0.5 0.5-0.3 0.3-0.6 0.5-0.3 0.3-0.6 0.5-0.3 0.2-0.6 0.4-0.4 0.2-0.7 0.4-0.4 0.2-0.8 0.4c-0.2 0.1-0.2 0.1-0.5 0.2-0.1 0-0.2 0.1-0.4 0.2l8.7 15.5-5.4 0.3-9.2-15.1h-6.9v15.2h-5.4v-37.4zm-7.3 18.2h6.9q0.5 0 1-0.1 0.5 0 0.9-0.1 0.4 0 0.8-0.1 0.4-0.1 0.8-0.2 0.4-0.1 0.7-0.3 0.3-0.1 0.6-0.3 0.3-0.2 0.6-0.4 0.2-0.2 0.5-0.5 0.2-0.2 0.4-0.5 0.2-0.2 0.4-0.5 0.2-0.3 0.3-0.6 0.1-0.3 0.3-0.6 0.1-0.3 0.2-0.6 0.1-0.4 0.1-0.7 0.1-0.4 0.1-0.7 0-0.4 0-0.8 0-0.4 0-0.7 0-0.4-0.1-0.7 0-0.4-0.1-0.7-0.1-0.3-0.2-0.6-0.1-0.4-0.3-0.6-0.1-0.3-0.3-0.6-0.2-0.3-0.4-0.5-0.2-0.3-0.4-0.5-0.2-0.2-0.5-0.4-0.2-0.2-0.5-0.4-0.3-0.1-0.7-0.3-0.3-0.1-0.7-0.2-0.3-0.2-0.7-0.2-0.4-0.1-0.9-0.2-0.4 0-0.9-0.1-0.4 0-1 0h-6.9z"/>
		<path id="path32" fill-rule="evenodd" class="s4" d="m851.9 474.7v37.3h5.4v-37.3z"/>
		<path id="path31" fill-rule="evenodd" class="s4" d="m861.8 474.9l13.8 36.8h4.1l13.7-36.8h-5.8l-10.1 29.3h-0.2l-10-29.3z"/>
		<path id="path30" fill-rule="evenodd" class="s4" d="m956.5 474.9v37h23.3v-4.4h-18l-0.1-12.7 15.1-0.2v-4.2l-15.1 0.2 0.1-11.4h18v-4.3z"/>
		<path id="path29" fill-rule="evenodd" class="s4" d="m1025.9 474.7v37.3h5.4v-37.3z"/>
		<path id="path27" fill-rule="evenodd" class="s4" d="m1084.4 474.7v37.3h5.3v-37.3z"/>
		<path id="path14" fill-rule="evenodd" class="s4" d="m1128.1 474.9v37h23.2v-4.4h-18v-12.7l15.1-0.2v-4.2l-15.1 0.2v-11.4h18v-4.3z"/>
		<path id="path11" fill-rule="evenodd" class="s4" d="m997.8 474.9l0.3 37 22 0.1 0.1-4.5h-16.9l0.1-32.6z"/>
		<path id="path10" fill-rule="evenodd" class="s4" d="m951.3 474.9l-28 0.1v4.7h10.8v32.2h5.5v-32.3l11.7-0.1z"/>
		<path id="path8" fill-rule="evenodd" class="s4" d="m1094.3 474.9v4.6l11.7 0.1v32.2h5.5v-32.2h10.8v-4.7z"/>
		<path id="path5" fill-rule="evenodd" class="s4" d="m911.1 475.3l8.4 22.4 1.6 4.3 3.7 9.9h-5.5l-3.6-9.9h-14.4l-3.6 9.9h-5.5l3.7-9.9 1.6-4.3 8.4-22.4 2.6-0.1zm-8.2 22.4h11.3l-5.7-15.4z"/>
		<path id="path4" fill-rule="evenodd" class="s4" d="m1042.7 474.7h-3.6v37.3h5.3v-28.3l11 28.3h4.6l11.1-26.4v26.4h5.3v-37.3h-2.7-4.4l-11.5 29.8-11.8-29.8z"/>
		<path id="path3" fill-rule="evenodd" class="s4" d="m1162.2 474.9h5.2q0.4 0 0.8 0 0.4 0.1 0.8 0.1 0.4 0 0.8 0.1 0.4 0.1 0.8 0.1 0.4 0.1 0.8 0.2 0.4 0.1 0.7 0.2 0.4 0.1 0.8 0.3 0.4 0.1 0.7 0.3 0.4 0.1 0.8 0.3 0.3 0.2 0.7 0.4 0.3 0.1 0.7 0.4 0.3 0.2 0.6 0.4 0.4 0.2 0.7 0.5 0.3 0.2 0.6 0.4 0.3 0.3 0.6 0.6 0.3 0.2 0.6 0.5 0.3 0.3 0.5 0.6 0.3 0.3 0.5 0.6 0.3 0.3 0.5 0.7 0.3 0.3 0.5 0.6 0.2 0.4 0.4 0.7 0.2 0.3 0.4 0.7 0.2 0.4 0.4 0.7 0.1 0.4 0.3 0.8 0.1 0.3 0.3 0.7 0.1 0.4 0.2 0.8 0.1 0.4 0.2 0.8 0.1 0.3 0.2 0.7 0.1 0.4 0.1 0.8 0.1 0.4 0.1 0.8 0.1 0.4 0.1 0.8 0 0.4 0 0.8v4.2q0 1.2-0.1 2.4-0.2 1.1-0.5 2.2-0.4 1.2-0.8 2.2-0.5 1.1-1.1 2.1-0.7 0.9-1.4 1.8-0.8 0.9-1.6 1.7-0.9 0.7-1.9 1.4-0.9 0.6-2 1.1-1 0.5-2.1 0.8-1.1 0.3-2.3 0.5-1.1 0.2-2.3 0.2h-10.5v-37zm0 32.9h4.9q1 0 2-0.2 1-0.2 1.9-0.5 1-0.4 1.8-0.9 0.9-0.5 1.6-1.2 0.8-0.6 1.5-1.4 0.6-0.8 1.1-1.7 0.5-0.8 0.8-1.8 0.4-1 0.6-2 0.1-1 0.1-2v-6.1q0-0.3 0-0.6 0-0.3 0-0.6-0.1-0.3-0.1-0.6-0.1-0.3-0.2-0.7 0-0.3-0.1-0.6-0.1-0.3-0.2-0.6-0.1-0.3-0.3-0.5-0.1-0.3-0.2-0.6-0.2-0.3-0.4-0.6-0.1-0.2-0.3-0.5-0.2-0.2-0.4-0.5-0.1-0.2-0.4-0.5-0.2-0.2-0.4-0.4-0.2-0.3-0.4-0.5-0.3-0.2-0.5-0.4-0.2-0.2-0.5-0.4-0.3-0.1-0.5-0.3-0.3-0.2-0.6-0.3-0.2-0.2-0.5-0.3-0.3-0.1-0.6-0.2-0.3-0.1-0.6-0.2-0.3-0.1-0.6-0.2-0.3-0.1-0.6-0.1-0.3-0.1-0.6-0.1-0.3-0.1-0.6-0.1-0.3 0-0.6 0h-6.1z"/>
		<path id="path1" fill-rule="evenodd" class="s4" d="m695.5 474.2q-0.4 0-0.7 0-0.4 0-0.8 0-0.3 0.1-0.7 0.1-0.4 0.1-0.7 0.2-0.4 0-0.7 0.1-0.4 0.1-0.7 0.2-0.4 0.1-0.7 0.2-0.3 0.2-0.7 0.3-0.3 0.1-0.6 0.3-0.3 0.2-0.6 0.3-0.3 0.2-0.6 0.4-0.3 0.2-0.6 0.3-0.3 0.2-0.6 0.5-0.3 0.2-0.5 0.4-0.3 0.2-0.6 0.4-0.2 0.3-0.5 0.5-0.2 0.3-0.5 0.5-0.2 0.3-0.4 0.6-0.2 0.2-0.4 0.5-0.2 0.3-0.4 0.6-0.2 0.3-0.4 0.6-0.2 0.3-0.4 0.6-0.1 0.3-0.3 0.6-0.1 0.3-0.3 0.7-0.1 0.3-0.2 0.6-0.2 0.3-0.3 0.7-0.1 0.3-0.2 0.7-0.1 0.3-0.1 0.7-0.1 0.3-0.2 0.7 0 0.4 0 0.7-0.1 0.4-0.1 0.8 0 0.4 0 0.7v9.2q0 0.4 0 0.8 0 0.3 0.1 0.7 0 0.4 0 0.7 0.1 0.4 0.2 0.8 0 0.3 0.1 0.7 0.1 0.3 0.2 0.7 0.1 0.3 0.3 0.6 0.1 0.4 0.2 0.7 0.2 0.3 0.3 0.6 0.2 0.4 0.3 0.7 0.2 0.3 0.4 0.6 0.2 0.3 0.4 0.6 0.2 0.3 0.4 0.5 0.2 0.3 0.4 0.6 0.2 0.3 0.4 0.5 0.3 0.3 0.5 0.5 0.3 0.3 0.5 0.5 0.3 0.2 0.6 0.5 0.2 0.2 0.5 0.4 0.3 0.2 0.6 0.4 0.3 0.2 0.6 0.4 0.3 0.2 0.6 0.3 0.3 0.2 0.6 0.3 0.3 0.2 0.6 0.3 0.4 0.2 0.7 0.3 0.3 0.1 0.7 0.2 0.3 0.1 0.7 0.2 0.3 0.1 0.7 0.2 0.3 0.1 0.7 0.1 0.4 0.1 0.7 0.1 0.4 0 0.8 0.1 0.3 0 0.7 0 0.4 0 0.8 0 0.3-0.1 0.7-0.1 0.4 0 0.7-0.1 0.4 0 0.8-0.1 0.3-0.1 0.7-0.2 0.3-0.1 0.7-0.2 0.3-0.1 0.6-0.2 0.4-0.1 0.7-0.3 0.3-0.1 0.6-0.3 0.4-0.1 0.7-0.3 0.3-0.1 0.6-0.3 0.3-0.2 0.6-0.4 0.3-0.2 0.5-0.4 0.3-0.2 0.6-0.4 0.2-0.3 0.5-0.5 0.3-0.2 0.5-0.5 0.3-0.2 0.5-0.5 0.2-0.2 0.5-0.5 0.2-0.3 0.4-0.6 0.2-0.2 0.4-0.5 0.2-0.3 0.4-0.6 0.1-0.3 0.3-0.6 0.2-0.3 0.3-0.7 0.2-0.3 0.3-0.6 0.2-0.3 0.3-0.7 0.1-0.3 0.2-0.6 0.1-0.4 0.2-0.7 0.1-0.4 0.2-0.7 0-0.4 0.1-0.8 0.1-0.3 0.1-0.7 0 0 0 0h-5.5q-0.1 0.3-0.2 0.6-0.1 0.5-0.3 1-0.2 0.5-0.4 0.9-0.2 0.5-0.4 0.9-0.3 0.5-0.6 0.9-0.2 0.4-0.6 0.7-0.3 0.4-0.6 0.7-0.4 0.4-0.7 0.7-0.4 0.3-0.8 0.5-0.4 0.3-0.8 0.5-0.2 0.1-0.4 0.2-0.2 0.1-0.4 0.1-0.2 0.1-0.5 0.2-0.2 0-0.4 0.1-0.2 0.1-0.5 0.1-0.2 0-0.4 0.1-0.3 0-0.5 0-0.2 0-0.5 0-0.2 0-0.5 0-0.2 0-0.4 0-0.3-0.1-0.5-0.1-0.2 0-0.4-0.1-0.3-0.1-0.5-0.1-0.2-0.1-0.4-0.2-0.2 0-0.5-0.1-0.2-0.1-0.4-0.2-0.4-0.2-0.8-0.5-0.4-0.2-0.7-0.5-0.4-0.3-0.8-0.7-0.3-0.3-0.6-0.7-0.3-0.3-0.6-0.7-0.3-0.4-0.5-0.9-0.3-0.4-0.5-0.9-0.2-0.4-0.4-0.9-0.2-0.5-0.3-1-0.1-0.5-0.2-1.1-0.1-0.5-0.2-1 0-0.6 0-1.2v-6.8q0-0.6 0-1.1 0.1-0.6 0.2-1.1 0.1-0.5 0.2-1 0.1-0.6 0.3-1 0.2-0.5 0.4-1 0.2-0.5 0.5-0.9 0.2-0.4 0.5-0.8 0.3-0.4 0.6-0.8 0.3-0.4 0.6-0.7 0.4-0.3 0.8-0.6 0.3-0.3 0.7-0.6 0.4-0.2 0.8-0.4 0.2-0.1 0.4-0.2 0.3-0.1 0.5-0.2 0.2-0.1 0.4-0.1 0.2-0.1 0.5-0.2 0.2 0 0.4-0.1 0.2 0 0.5 0 0.2 0 0.4-0.1 0.3 0 0.5 0 0.3 0 0.5 0 0.2 0 0.5 0.1 0.2 0 0.4 0 0.3 0.1 0.5 0.1 0.2 0.1 0.4 0.2 0.3 0 0.5 0.1 0.2 0.1 0.4 0.2 0.2 0.1 0.4 0.2 0.4 0.2 0.8 0.4 0.4 0.3 0.8 0.6 0.3 0.3 0.7 0.6 0.3 0.3 0.6 0.7 0.4 0.4 0.6 0.8 0.3 0.4 0.6 0.8 0.2 0.4 0.4 0.9 0.2 0.5 0.4 1 0.2 0.4 0.3 1 0 0 0 0h5.6q0-0.1 0-0.2-0.1-0.4-0.1-0.7-0.1-0.4-0.2-0.7-0.1-0.4-0.2-0.7-0.1-0.4-0.2-0.7-0.1-0.3-0.3-0.7-0.1-0.3-0.3-0.6-0.1-0.3-0.3-0.6-0.2-0.3-0.3-0.6-0.2-0.3-0.4-0.6-0.2-0.3-0.4-0.6-0.2-0.3-0.5-0.5-0.2-0.3-0.4-0.6-0.2-0.2-0.5-0.5-0.2-0.2-0.5-0.5-0.3-0.2-0.5-0.4-0.3-0.2-0.6-0.4-0.2-0.3-0.5-0.5-0.3-0.1-0.6-0.3-0.3-0.2-0.6-0.4-0.3-0.1-0.7-0.3-0.3-0.2-0.6-0.3-0.3-0.1-0.7-0.3-0.3-0.1-0.6-0.2-0.4-0.1-0.7-0.2-0.4-0.1-0.7-0.1-0.4-0.1-0.8-0.2-0.3 0-0.7-0.1-0.4 0-0.7 0-0.4 0-0.8 0z"/>
	</g>
</svg>